<?xml version="1.0"?>
<!-- Converted with SVG Converter - Version 0.9.5 (Compiled Mon May 30 09:08:51 2011) - Copyright (C) 2011 Nokia -->
<svg xmlns="http://www.w3.org/2000/svg" width="96" x="0" version="1.1" y="0" height="96" viewBox="0 0 96 96" baseProfile="tiny" xmlns:xlink="http://www.w3.org/1999/xlink" id="svg2">
 <metadata id="metadata147"/>
 <defs id="defs145"/>
 <g id="g4">
  <g id="g6">
   <linearGradient id="SVGID_1_" y1="48" x1="7.25" y2="48" gradientUnits="userSpaceOnUse" x2="88.75">
    <stop offset="0" stop-color="#064C00" id="stop9"/>
    <stop offset="1" stop-color="#6FA519" id="stop11"/>
   </linearGradient>
   <path stroke-opacity="0.3" fill="url(#SVGID_1_)" fill-opacity="0.3" id="path13" d="M48,7.25C17.809,7.25,7.25,17.81,7.25,48C7.25,78.188,17.809,88.75,48,88.75C78.191,88.75,88.75,78.187,88.75,48C88.75,17.81,78.191,7.25,48,7.25zM48,87.986C18.376,87.986,8.015,77.623,8.015,48C8.015,18.375,18.376,8.014,48,8.014C77.626,8.014,87.986,18.375,87.986,48C87.986,77.623,77.626,87.986,48,87.986z"/>
   <linearGradient gradientTransform="matrix(1 0 0 -1 -751.5801 -1799.7803)" id="SVGID_2_" y1="-1887.2349" x1="799.5801" y2="-1806.5402" gradientUnits="userSpaceOnUse" x2="799.5801">
    <stop offset="0" stop-color="#064C00" id="stop16"/>
    <stop offset="1" stop-color="#6FA519" id="stop18"/>
   </linearGradient>
   <path fill="url(#SVGID_2_)" id="path20" d="M88,48C88,77.633,77.637,88,48,88C18.365,88,8,77.633,8,48C8,18.365,18.365,8,48,8C77.637,8,88,18.365,88,48z"/>
  </g>
 </g>
 <g display="none" id="g22">
  <g display="inline" id="g24">
   <linearGradient id="SVGID_3_" y1="47.9775" x1="7.1724" y2="47.9775" gradientUnits="userSpaceOnUse" x2="88.6719">
    <stop offset="0" stop-color="#225F18" id="stop27"/>
    <stop offset="0.7833" stop-color="#5E9B54" id="stop29"/>
    <stop offset="1" stop-color="#5E9B54" id="stop31"/>
   </linearGradient>
   <path stroke-opacity="0.3" fill="url(#SVGID_3_)" fill-opacity="0.3" id="path33" d="M47.922,7.228C17.731,7.228,7.172,17.789,7.172,47.978C7.172,78.166,17.731,88.728,47.922,88.728C78.113,88.728,88.672,78.165,88.672,47.978C88.672,17.788,78.113,7.228,47.922,7.228zM47.922,87.964C18.298,87.964,7.938,77.601,7.938,47.978C7.938,18.353,18.298,7.992,47.922,7.992C77.548,7.992,87.908,18.353,87.908,47.978C87.908,77.601,77.549,87.964,47.922,87.964z"/>
   <linearGradient gradientTransform="matrix(1 0 0 -1 -751.5801 -1799.7803)" id="SVGID_4_" y1="-1887.2124" x1="799.5029" y2="-1806.5177" gradientUnits="userSpaceOnUse" x2="799.5029">
    <stop offset="0" stop-color="#225F18" id="stop36"/>
    <stop offset="0.7833" stop-color="#5E9B54" id="stop38"/>
    <stop offset="1" stop-color="#5E9B54" id="stop40"/>
   </linearGradient>
   <path fill="url(#SVGID_4_)" id="path42" d="M87.922,47.978C87.922,77.611,77.559,87.978,47.922,87.978C18.287,87.978,7.922,77.611,7.922,47.978C7.922,18.343,18.287,7.978,47.922,7.978C77.559,7.978,87.922,18.343,87.922,47.978z"/>
  </g>
 </g>
 <g display="none" id="g44">
  <g display="inline" id="g46">
   <linearGradient id="SVGID_5_" y1="48.2876" x1="7.25" y2="48.2876" gradientUnits="userSpaceOnUse" x2="88.75">
    <stop offset="0" stop-color="#36A200" id="stop49"/>
    <stop offset="1" stop-color="#72DE3C" id="stop51"/>
   </linearGradient>
   <path stroke-opacity="0.3" fill="url(#SVGID_5_)" fill-opacity="0.3" id="path53" d="M48,7.538C17.809,7.538,7.25,18.099,7.25,48.288C7.25,78.475,17.809,89.038,48,89.038C78.191,89.038,88.75,78.475,88.75,48.288C88.75,18.099,78.191,7.538,48,7.538zM48,88.273C18.376,88.273,8.016,77.91,8.016,48.287C8.016,18.663,18.376,8.302,48,8.302C77.626,8.302,87.986,18.663,87.986,48.287C87.986,77.91,77.626,88.273,48,88.273z"/>
   <linearGradient gradientTransform="matrix(1 0 0 -1 -751.5801 -1799.7803)" id="SVGID_6_" y1="-1887.522" x1="799.5801" y2="-1806.8282" gradientUnits="userSpaceOnUse" x2="799.5801">
    <stop offset="0" stop-color="#36A200" id="stop56"/>
    <stop offset="1" stop-color="#72DE3C" id="stop58"/>
   </linearGradient>
   <path fill="url(#SVGID_6_)" id="path60" d="M88,48.288C88,77.92,77.637,88.288,48,88.288C18.365,88.288,8,77.921,8,48.288C8,18.654,18.365,8.288,48,8.288C77.637,8.288,88,18.653,88,48.288z"/>
  </g>
 </g>
 <g id="g62">
  <g id="g64">
   <path stroke-opacity="0.1" fill-opacity="0.1" id="path66" d="M48,6.538C17.161,6.538,6.375,17.276,6.375,47.978C6.375,78.678,17.161,89.417,48,89.417C78.84,89.417,89.625,78.678,89.625,47.978C89.625,17.276,78.84,6.538,48,6.538zM48,88.641C17.74,88.641,7.156,78.102,7.156,47.978C7.156,17.851,17.74,7.315,48,7.315C78.264,7.315,88.844,17.851,88.844,47.978C88.844,78.102,78.264,88.641,48,88.641z"/>
  </g>
  <path stroke-opacity="0.3" fill="#FFFFFF" fill-opacity="0.3" id="path68" d="M48,9.875C77.318,9.875,87.768,20.031,87.988,48.938C87.992,48.623,88,48.318,88,48C88,18.365,77.637,8,48,8C18.365,8,8,18.365,8,48C8,48.318,8.008,48.623,8.011,48.938C8.232,20.031,18.684,9.875,48,9.875z"/>
  <path stroke-opacity="0.6" fill-opacity="0.6" id="path70" d="M47.923,87.959C18.631,87.959,8.19,77.801,7.968,48.896C7.965,49.209,7.957,49.515,7.957,49.834C7.957,79.467,18.313,89.834,47.922,89.834C77.531,89.834,87.887,79.467,87.887,49.834C87.887,49.516,87.878,49.211,87.875,48.896C87.654,77.801,77.216,87.959,47.923,87.959z"/>
 </g>
 <g id="g72">
  <polygon fill="#214806" points="50.896,20.078 50.896,27.751 46.897,20.078 44.897,20.078 44.897,32.078 46.897,32.078 46.897,24.404 50.896,32.078 52.896,32.078 52.896,20.078" id="polygon74"/>
  <polygon fill="#F1F1F2" points="50.896,21.078 50.896,28.751 46.897,21.078 44.897,21.078 44.897,33.078 46.897,33.078 46.897,25.404 50.896,33.078 52.896,33.078 52.896,21.078" id="polygon76"/>
  <path stroke-opacity="0.01" fill-opacity="0.01" id="path78" d="M71.316,79.877C70.697,79.877,70.099,79.688,69.592,79.332L42.41,60.43C42.151,60.258,41.912,60.028,41.708,59.75L22.108,33.058C21.24,31.875,21.351,30.251,22.373,29.195C22.952,28.606,23.717,28.283,24.528,28.283C25.146,28.283,25.74,28.47,26.246,28.824L53.423,47.706C53.692,47.893,53.925,48.119,54.119,48.379L73.736,75.102C74.605,76.29,74.492,77.915,73.466,78.969C72.9,79.547,72.117,79.877,71.316,79.877z"/>
  <path stroke-opacity="0.01" fill-opacity="0.01" id="path80" d="M73.333,75.396L53.718,48.678C53.556,48.461,53.362,48.272,53.137,48.116L25.959,29.233C25.537,28.938,25.042,28.782,24.527,28.782C23.85,28.782,23.214,29.051,22.731,29.542C21.879,30.422,21.787,31.776,22.51,32.762L42.11,59.453C42.28,59.682,42.479,59.875,42.695,60.016L69.88,78.922C70.302,79.219,70.798,79.375,71.317,79.375C71.985,79.375,72.637,79.1,73.11,78.619C73.963,77.742,74.057,76.387,73.333,75.396z"/>
  <path stroke-opacity="0.02" fill-opacity="0.02" id="path82" d="M72.93,75.693L53.316,48.977C53.187,48.803,53.031,48.653,52.851,48.528L25.671,29.644C25.334,29.408,24.939,29.284,24.526,29.284C23.984,29.284,23.475,29.499,23.089,29.891C22.407,30.596,22.333,31.679,22.912,32.467L42.511,59.157C42.646,59.341,42.806,59.495,42.979,59.608L70.167,78.512C70.504,78.748,70.901,78.873,71.315,78.873C71.845,78.873,72.372,78.65,72.749,78.268C73.434,77.568,73.509,76.484,72.93,75.693z"/>
  <path stroke-opacity="0.03" fill-opacity="0.03" id="path84" d="M72.527,75.99L52.914,49.275C52.816,49.142,52.699,49.03,52.566,48.937L25.386,30.053C25.133,29.876,24.837,29.783,24.528,29.783C24.122,29.783,23.74,29.944,23.451,30.238C22.939,30.767,22.884,31.58,23.318,32.171L42.915,58.859C43.016,58.996,43.136,59.111,43.267,59.199L70.455,78.105C70.709,78.283,71.007,78.376,71.316,78.376C71.713,78.376,72.109,78.21,72.388,77.921C72.904,77.395,72.961,76.582,72.527,75.99z"/>
  <path stroke-opacity="0.03" fill-opacity="0.03" id="path86" d="M72.123,76.285L52.515,49.575C52.45,49.484,52.369,49.409,52.282,49.347L25.099,30.462C24.931,30.344,24.734,30.282,24.528,30.282C24.257,30.282,24.003,30.389,23.81,30.585C23.469,30.938,23.431,31.48,23.721,31.874L43.316,58.561C43.383,58.653,43.463,58.729,43.551,58.79L70.742,77.698C70.91,77.815,71.109,77.878,71.316,77.878C71.583,77.878,71.839,77.773,72.033,77.575C72.375,77.223,72.412,76.68,72.123,76.285z"/>
  <path stroke-opacity="0.03" fill-opacity="0.03" id="path88" d="M71.72,76.58L52.113,49.873C52.08,49.828,52.044,49.79,51.996,49.758L24.813,30.872C24.727,30.812,24.627,30.783,24.528,30.783C24.397,30.783,24.267,30.834,24.17,30.934C24,31.109,23.981,31.382,24.125,31.579L43.719,58.266C43.752,58.311,43.791,58.348,43.837,58.379L71.031,77.287C71.117,77.35,71.217,77.377,71.316,77.377C71.447,77.377,71.576,77.326,71.67,77.229C71.845,77.051,71.863,76.779,71.72,76.58z"/>
  <polygon stroke-opacity="0.03" points="51.711,50.169 24.528,31.283 44.121,57.969 71.316,76.877" fill-opacity="0.03" id="polygon90"/>
  <linearGradient gradientTransform="matrix(1 0 0 1 -742.0801 -980.4199)" id="SVGID_7_" y1="1008.6514" x1="766.8271" y2="1031.6661" gradientUnits="userSpaceOnUse" x2="790.1757">
   <stop offset="0" stop-color="#E92227" id="stop93"/>
   <stop offset="0.3337" stop-color="#E62226" id="stop95"/>
   <stop offset="0.5668" stop-color="#DD2025" id="stop97"/>
   <stop offset="0.7692" stop-color="#CE1E22" id="stop99"/>
   <stop offset="0.9531" stop-color="#B81A1D" id="stop101"/>
   <stop offset="1" stop-color="#B1191C" id="stop103"/>
  </linearGradient>
  <polygon fill="url(#SVGID_7_)" points="51.711,47.169 24.528,28.283 44.121,54.969" id="polygon105"/>
  <linearGradient gradientTransform="matrix(1 0 0 1 -742.0801 -980.4199)" id="SVGID_8_" y1="1031.5479" x1="790.0557" y2="1054.5812" gradientUnits="userSpaceOnUse" x2="813.4229">
   <stop offset="0" stop-color="#FFFFFF" id="stop108"/>
   <stop offset="0.2727" stop-color="#FFFFFF" id="stop110"/>
   <stop offset="0.6424" stop-color="#FFFFFF" id="stop112"/>
   <stop offset="1" stop-color="#FFFFFF" id="stop114"/>
  </linearGradient>
  <polygon fill="url(#SVGID_8_)" points="51.711,47.169 44.121,54.969 71.316,73.877" id="polygon116"/>
  <linearGradient gradientTransform="matrix(1 0 0 1 -742.0801 -980.4199)" id="SVGID_9_" y1="1035.5762" x1="786.3701" y2="1029.2211" gradientUnits="userSpaceOnUse" x2="792.0296">
   <stop offset="0" stop-color="#231F20" id="stop119"/>
   <stop offset="1" stop-color="#231F20" id="stop121"/>
  </linearGradient>
  <polygon stroke-opacity="0.29" fill="url(#SVGID_9_)" points="24.528,28.283 44.121,54.969 71.316,73.877" fill-opacity="0.29" id="polygon123"/>
  <circle stroke-opacity="0.4" cx="47.897" cy="51.578" fill-opacity="0.4" r="3.5" id="circle125"/>
  <linearGradient gradientTransform="matrix(1 0 0 1 -742.0801 -980.4199)" id="SVGID_10_" y1="1028.9971" x1="789.9766" y2="1037.3729" gradientUnits="userSpaceOnUse" x2="789.9766">
   <stop offset="0" stop-color="#FFFFFF" id="stop128"/>
   <stop offset="1" stop-color="#6D6E70" id="stop130"/>
  </linearGradient>
  <circle fill="url(#SVGID_10_)" cx="47.897" cy="51.078" r="3" id="circle132"/>
  <circle fill="#F1F1F2" cx="47.897" cy="51.078" r="2" id="circle134"/>
  <linearGradient gradientTransform="matrix(1 0 0 1 -742.0801 -980.4199)" id="SVGID_11_" y1="1021.3525" x1="797.6641" y2="1033.0488" gradientUnits="userSpaceOnUse" x2="788.9674">
   <stop offset="0" stop-color="#FFFFFF" id="stop137"/>
   <stop offset="1" stop-color="#FFFFFF" id="stop139"/>
  </linearGradient>
  <polygon fill="url(#SVGID_11_)" points="50.879,48.018 29.93,33.46 66.105,68.756" id="polygon141"/>
 </g>
 <g id="g3030" transform="matrix(0.58623885,0.55461921,-0.5861764,0.55461921,48.403779,-2.192597)">
  <path style="opacity:0.15;stroke-opacity:0.15" id="path4" d="m 46.5,66 c -1.6545,0 -3,-1.344 -3,-3 l 0,-10.5 -10.5,0 c -1.6545,0 -3,-1.344 -3,-3 l 0,-3 c 0,-1.6545 1.3455,-3 3,-3 l 10.5,0 0,-10.5 c 0,-1.6545 1.3455,-3 3,-3 l 3,0 c 1.653,0 3,1.3455 3,3 l 0,10.5 10.5,0 c 1.653,0 3,1.3455 3,3 l 0,3 c 0,1.656 -1.347,3 -3,3 l -10.5,0 0,10.5 c 0,1.656 -1.347,3 -3,3 l -3,0 z"/>
  <path style="opacity:0.3;stroke-opacity:0.3" id="path6" d="m 63,45 -12,0 0,-12 c 0,-0.825 -0.6765,-1.5 -1.5,-1.5 l -3,0 C 45.6735,31.5 45,32.175 45,33 l 0,12 -12,0 c -0.825,0 -1.5,0.675 -1.5,1.5 l 0,3 c 0,0.825 0.675,1.5 1.5,1.5 l 12,0 0,12 c 0,0.825 0.6735,1.5 1.5,1.5 l 3,0 c 0.8235,0 1.5,-0.675 1.5,-1.5 l 0,-12 12,0 c 0.8235,0 1.5,-0.675 1.5,-1.5 l 0,-3 C 64.5,45.675 63.8235,45 63,45 z"/>
  <path style="fill:#ff0000" id="path8" d="m 75.504934,42.840299 -21.232256,0.492379 0.492326,-21.232204 c 0.03384,-1.459713 -1.135428,-2.626268 -2.592491,-2.592478 l -5.308065,0.123099 c -1.462371,0.03391 -2.681724,1.255859 -2.715572,2.715572 l -0.492326,21.232199 -21.232256,0.49238 c -1.459717,0.03384 -2.681726,1.255859 -2.715572,2.715572 l -0.123084,5.308051 c -0.03384,1.459715 1.132774,2.62633 2.592492,2.592479 l 21.232256,-0.492379 -0.492327,21.232204 c -0.03384,1.459712 1.13012,2.62639 2.592491,2.592478 l 5.308064,-0.1231 c 1.457064,-0.03379 2.681725,-1.255859 2.715574,-2.715574 L 54.026514,53.94878 75.258769,53.456401 c 1.457064,-0.03379 2.681727,-1.255859 2.715575,-2.715573 l 0.123082,-5.308051 C 78.131266,43.973063 76.961999,42.80651 75.504935,42.8403 z"/>
  <rect width="45" x="25.5" y="25.5" height="45" style="fill:none" id="rect10"/>
 </g>
</svg>
